<?xml version="1.0" encoding="UTF-8"?>
<svg width="700pt" height="700pt" version="1.1" viewBox="0 0 700 700" xmlns="http://www.w3.org/2000/svg" xmlns:xlink="http://www.w3.org/1999/xlink">
 <defs>
  <symbol id="r" overflow="visible">
   <path d="m0.21875-0.015625c-0.011719 0.011719-0.023438 0.015625-0.03125 0.015625h-0.046875c-0.03125 0-0.0625-0.0078125-0.09375-0.03125-0.023438-0.019531-0.03125-0.050781-0.03125-0.09375 0-0.03125 0.0078125-0.054688 0.03125-0.078125 0.03125-0.03125 0.0625-0.046875 0.09375-0.046875 0.019531 0 0.035156 0.007812 0.046875 0.015625h0.03125v0.0625c-0.011719-0.007813-0.023438-0.015625-0.03125-0.015625-0.011719-0.007812-0.023438-0.015625-0.03125-0.015625-0.023438 0-0.042969 0.011719-0.0625 0.03125-0.011719 0.011719-0.015625 0.027344-0.015625 0.046875 0 0.03125 0.0039062 0.054688 0.015625 0.0625 0.019531 0.011719 0.039062 0.015625 0.0625 0.015625h0.03125c0.007812 0 0.019531-0.0039062 0.03125-0.015625z"/>
  </symbol>
  <symbol id="c" overflow="visible">
   <path d="m0.15625-0.125c0-0.007812-0.007812-0.015625-0.015625-0.015625-0.023437 0-0.039063 0.007813-0.046875 0.015625v0.046875 0.078125h-0.0625v-0.1875h0.0625v0.03125c0-0.007812 0.0039062-0.015625 0.015625-0.015625 0.007813-0.007813 0.019531-0.015625 0.03125-0.015625h0.015625z"/>
  </symbol>
  <symbol id="a" overflow="visible">
   <path d="m0.20312-0.09375v0.015625h-0.125v0.046875h0.046875 0.03125c0.019531-0.0078125 0.035156-0.019531 0.046875-0.03125v0.046875c-0.011719 0.011719-0.027344 0.015625-0.046875 0.015625h-0.03125c-0.042969 0-0.074219-0.0039062-0.09375-0.015625-0.011719-0.019531-0.015625-0.046875-0.015625-0.078125s0.0039062-0.050781 0.015625-0.0625c0.019531-0.019531 0.046875-0.03125 0.078125-0.03125s0.050781 0.011719 0.0625 0.03125c0.019531 0.011719 0.03125 0.03125 0.03125 0.0625zm-0.046875-0.015625c0-0.007813-0.007812-0.015625-0.015625-0.015625-0.011719-0.007812-0.023437-0.015625-0.03125-0.015625-0.011719 0-0.023438 0.007813-0.03125 0.015625v0.015625z"/>
  </symbol>
  <symbol id="g" overflow="visible">
   <path d="m0.10938-0.078125c-0.011719 0-0.023438 0.0078125-0.03125 0.015625v0.03125h0.015625c0.019531 0 0.03125-0.0039062 0.03125-0.015625 0.007812-0.0078125 0.015625-0.019531 0.015625-0.03125zm0.09375-0.03125v0.10938h-0.0625v-0.03125c-0.011719 0.011719-0.023437 0.023438-0.03125 0.03125h-0.03125c-0.023438 0-0.039062-0.0039062-0.046875-0.015625-0.011719-0.0078125-0.015625-0.023438-0.015625-0.046875 0-0.019531 0.0039062-0.03125 0.015625-0.03125 0.019531-0.007812 0.046875-0.015625 0.078125-0.015625h0.03125v-0.015625c0-0.007812-0.007813-0.015625-0.015625-0.015625h-0.03125-0.03125-0.03125v-0.03125c0.0078125-0.007813 0.019531-0.015625 0.03125-0.015625h0.046875c0.03125 0 0.050781 0.011719 0.0625 0.03125 0.019531 0.011719 0.03125 0.027344 0.03125 0.046875z"/>
  </symbol>
  <symbol id="b" overflow="visible">
   <path d="m0.09375-0.23438v0.046875h0.0625v0.046875h-0.0625v0.078125 0.015625h0.015625 0.03125v0.046875h-0.046875c-0.023438 0-0.039062-0.0039062-0.046875-0.015625-0.011719-0.0078125-0.015625-0.023438-0.015625-0.046875v-0.078125h-0.03125v-0.046875h0.03125v-0.046875z"/>
  </symbol>
  <symbol id="i" overflow="visible">
   <path d="m0.15625-0.15625v-0.09375h0.046875v0.25h-0.046875v-0.03125c-0.011719 0.011719-0.023438 0.023438-0.03125 0.03125h-0.03125c-0.023438 0-0.042969-0.0039062-0.0625-0.015625-0.011719-0.019531-0.015625-0.046875-0.015625-0.078125s0.0039062-0.050781 0.015625-0.0625c0.019531-0.019531 0.039062-0.03125 0.0625-0.03125 0.007812 0 0.019531 0.007812 0.03125 0.015625 0.007812 0 0.019531 0.007813 0.03125 0.015625zm-0.046875 0.125c0.007813 0 0.019531-0.0039062 0.03125-0.015625 0.007813-0.0078125 0.015625-0.023438 0.015625-0.046875 0-0.007812-0.007812-0.019531-0.015625-0.03125-0.011719-0.007812-0.023437-0.015625-0.03125-0.015625-0.011719 0-0.023438 0.007813-0.03125 0.015625v0.03125 0.046875c0.0078125 0.011719 0.019531 0.015625 0.03125 0.015625z"/>
  </symbol>
  <symbol id="h" overflow="visible">
   <path d="m0.125-0.03125c0.007812 0 0.015625-0.0039062 0.015625-0.015625 0.007813-0.0078125 0.015625-0.023438 0.015625-0.046875 0-0.007812-0.007812-0.019531-0.015625-0.03125 0-0.007812-0.007813-0.015625-0.015625-0.015625-0.011719 0-0.023438 0.007813-0.03125 0.015625v0.03125 0.046875c0.007812 0.011719 0.019531 0.015625 0.03125 0.015625zm-0.03125-0.125c0-0.007812 0.0039062-0.015625 0.015625-0.015625 0.007813-0.007813 0.019531-0.015625 0.03125-0.015625 0.03125 0 0.050781 0.011719 0.0625 0.03125 0.007813 0.011719 0.015625 0.03125 0.015625 0.0625s-0.007812 0.058594-0.015625 0.078125c-0.011719 0.011719-0.03125 0.015625-0.0625 0.015625h-0.03125c-0.011719-0.0078125-0.015625-0.019531-0.015625-0.03125v0.03125h-0.0625v-0.25h0.0625z"/>
  </symbol>
  <symbol id="f" overflow="visible">
   <path d="m0-0.1875h0.0625l0.046875 0.125 0.046875-0.125h0.0625l-0.078125 0.20312c-0.011719 0.019531-0.023437 0.035156-0.03125 0.046875-0.011719 0.0078125-0.027344 0.015625-0.046875 0.015625h-0.03125v-0.046875h0.015625 0.015625c0.0078125 0 0.015625-0.0078125 0.015625-0.015625v-0.015625z"/>
  </symbol>
  <symbol id="e" overflow="visible">
   <path d="m0.03125-0.078125v-0.10938h0.046875v0.015625 0.046875 0.03125 0.03125c0.0078125 0 0.015625 0.0078125 0.015625 0.015625h0.015625 0.03125c0.007813-0.0078125 0.015625-0.023438 0.015625-0.046875v-0.09375h0.046875v0.1875h-0.046875v-0.03125c-0.011719 0.011719-0.023438 0.023438-0.03125 0.03125h-0.03125c-0.023438 0-0.039062-0.0039062-0.046875-0.015625-0.011719-0.0078125-0.015625-0.03125-0.015625-0.0625z"/>
  </symbol>
  <symbol id="q" overflow="visible">
   <path d="m0.14062-0.25v0.03125h-0.03125s-0.007813 0.007812-0.015625 0.015625v0.015625h0.046875v0.046875h-0.046875v0.14062h-0.0625v-0.14062h-0.03125v-0.046875h0.03125c0-0.019531 0.0039062-0.035156 0.015625-0.046875 0.0078125-0.007813 0.03125-0.015625 0.0625-0.015625z"/>
  </symbol>
  <symbol id="d" overflow="visible">
   <path d="m0.10938-0.14062c-0.011719 0-0.023438 0.007813-0.03125 0.015625v0.03125 0.046875c0.0078125 0.011719 0.019531 0.015625 0.03125 0.015625 0.019531 0 0.03125-0.0039062 0.03125-0.015625 0.007813-0.0078125 0.015625-0.023438 0.015625-0.046875 0-0.019531-0.007812-0.03125-0.015625-0.03125 0-0.007812-0.011719-0.015625-0.03125-0.015625zm0-0.046875c0.03125 0 0.054687 0.011719 0.078125 0.03125 0.019531 0.011719 0.03125 0.03125 0.03125 0.0625s-0.011719 0.058594-0.03125 0.078125c-0.023438 0.011719-0.046875 0.015625-0.078125 0.015625s-0.058594-0.0039062-0.078125-0.015625c-0.011719-0.019531-0.015625-0.046875-0.015625-0.078125s0.0039062-0.050781 0.015625-0.0625c0.019531-0.019531 0.046875-0.03125 0.078125-0.03125z"/>
  </symbol>
  <symbol id="p" overflow="visible">
   <path d="m0.20312-0.15625c0-0.007812 0.003906-0.015625 0.015625-0.015625 0.007812-0.007813 0.019531-0.015625 0.03125-0.015625 0.019531 0 0.035156 0.011719 0.046875 0.03125 0.019531 0.011719 0.03125 0.027344 0.03125 0.046875v0.10938h-0.0625v-0.09375-0.015625c0-0.007813-0.007813-0.015625-0.015625-0.015625 0-0.007812-0.007812-0.015625-0.015625-0.015625-0.011719 0-0.023437 0.007813-0.03125 0.015625v0.03125 0.09375h-0.0625v-0.09375-0.03125c0-0.007812-0.007813-0.015625-0.015625-0.015625-0.011719 0-0.023438 0.007813-0.03125 0.015625v0.03125 0.09375h-0.0625v-0.1875h0.0625v0.03125c0-0.007812 0.0039062-0.015625 0.015625-0.015625 0.007813-0.007813 0.019531-0.015625 0.03125-0.015625 0.007813 0 0.019531 0.007812 0.03125 0.015625 0.007813 0 0.019531 0.007813 0.03125 0.015625z"/>
  </symbol>
  <symbol id="o" overflow="visible">
   <path d="m0.21875-0.10938v0.10938h-0.0625v-0.078125-0.03125c0-0.007813-0.007812-0.015625-0.015625-0.015625v-0.015625h-0.015625c-0.011719 0-0.023438 0.007813-0.03125 0.015625v0.03125 0.09375h-0.0625v-0.25h0.0625v0.09375c0-0.007812 0.0039062-0.015625 0.015625-0.015625 0.007813-0.007813 0.019531-0.015625 0.03125-0.015625 0.019531 0 0.035156 0.011719 0.046875 0.03125 0.019531 0.011719 0.03125 0.027344 0.03125 0.046875z"/>
  </symbol>
  <symbol id="n" overflow="visible">
   <path d="m0.03125-0.25h0.0625l0.09375 0.17188v-0.17188h0.0625v0.25h-0.078125l-0.078125-0.17188v0.17188h-0.0625z"/>
  </symbol>
  <symbol id="m" overflow="visible">
   <path d="m0.21875-0.10938v0.10938h-0.0625v-0.078125-0.03125c0-0.007813-0.007812-0.015625-0.015625-0.015625v-0.015625h-0.015625c-0.011719 0-0.023438 0.007813-0.03125 0.015625v0.03125 0.09375h-0.0625v-0.1875h0.0625v0.03125c0-0.007812 0.0039062-0.015625 0.015625-0.015625 0.007813-0.007813 0.019531-0.015625 0.03125-0.015625 0.019531 0 0.035156 0.011719 0.046875 0.03125 0.019531 0.011719 0.03125 0.027344 0.03125 0.046875z"/>
  </symbol>
  <symbol id="l" overflow="visible">
   <path d="m0.03125-0.25h0.10938c0.03125 0 0.050781 0.011719 0.0625 0.03125 0.019531 0.011719 0.03125 0.03125 0.03125 0.0625 0 0.023438-0.011719 0.042969-0.03125 0.0625-0.011719 0.011719-0.03125 0.015625-0.0625 0.015625h-0.046875v0.078125h-0.0625zm0.0625 0.046875v0.078125h0.03125 0.03125c0.007812-0.007812 0.015625-0.019531 0.015625-0.03125 0-0.019531-0.007813-0.03125-0.015625-0.03125-0.011719-0.007812-0.023438-0.015625-0.03125-0.015625z"/>
  </symbol>
  <symbol id="k" overflow="visible">
   <path d="m0.03125-0.1875h0.0625v0.1875c0 0.019531-0.011719 0.035156-0.03125 0.046875-0.011719 0.019531-0.027344 0.03125-0.046875 0.03125h-0.03125v-0.046875h0.015625c0.0078125 0 0.015625-0.0078125 0.015625-0.015625 0.0078125 0 0.015625-0.0078125 0.015625-0.015625zm0-0.0625h0.0625v0.046875h-0.0625z"/>
  </symbol>
  <symbol id="j" overflow="visible">
   <path d="m0.17188-0.17188v0.046875c-0.011719-0.007812-0.023437-0.015625-0.03125-0.015625h-0.015625c-0.011719 0-0.023438 0.007813-0.03125 0.015625-0.011719 0.011719-0.015625 0.023438-0.015625 0.03125 0 0.023438 0.0039062 0.039062 0.015625 0.046875 0.007812 0.011719 0.019531 0.015625 0.03125 0.015625h0.03125c0.007812-0.0078125 0.015625-0.015625 0.015625-0.015625v0.046875h-0.03125-0.015625c-0.042969 0-0.074219-0.0039062-0.09375-0.015625-0.011719-0.019531-0.015625-0.046875-0.015625-0.078125s0.0039062-0.050781 0.015625-0.0625c0.019531-0.019531 0.050781-0.03125 0.09375-0.03125h0.015625c0.007813 0 0.019531 0.007812 0.03125 0.015625z"/>
  </symbol>
 </defs>
 <g>
  <path d="m609.96 0h-519.99c-10.926 0-19.973 9.0469-19.973 19.973v519.99c0 10.992 9.0469 20.039 19.973 20.039h519.99c10.992 0 20.039-9.0469 20.039-20.039v-519.99c0-10.926-9.0469-19.973-20.039-19.973zm-195.09 395.27c24.125-24.125 63.199-24.125 87.258 0 24.125 24.059 24.125 63.129 0 87.258-24.059 24.125-63.129 24.125-87.258 0-24.059-24.125-24.059-63.199 0-87.258zm-217.07 2.2773c24.125-24.059 63.199-24.059 87.258 0 24.125 24.125 24.125 63.199 0 87.324-24.059 24.059-63.129 24.059-87.258 0-24.125-24.125-24.125-63.199 0-87.324zm217.07-158.9c24.125-24.059 63.199-24.059 87.258 0 24.125 24.125 24.125 63.199 0 87.258-24.059 24.125-63.129 24.125-87.258 0-24.059-24.059-24.059-63.129 0-87.258zm-217.07 0c24.125-24.059 63.199-24.059 87.258 0 24.125 24.125 24.125 63.199 0 87.258-24.059 24.125-63.129 24.125-87.258 0-24.125-24.059-24.125-63.129 0-87.258zm217.07-163.52c24.125-24.125 63.199-24.125 87.258 0 24.125 24.125 24.125 63.199 0 87.258-24.059 24.125-63.129 24.125-87.258 0-24.059-24.059-24.059-63.129 0-87.258zm-217.07-2.3438c24.125-24.059 63.199-24.059 87.258 0 24.125 24.125 24.125 63.199 0 87.324-24.059 24.059-63.129 24.059-87.258 0-24.059-24.125-24.059-63.199 0-87.324z" fill="white" />
  <use x="70" y="561.003906" xlink:href="#r"/>
  <use x="70.246094" y="561.003906" xlink:href="#c"/>
  <use x="70.410156" y="561.003906" xlink:href="#a"/>
  <use x="70.636719" y="561.003906" xlink:href="#g"/>
  <use x="70.863281" y="561.003906" xlink:href="#b"/>
  <use x="71.023438" y="561.003906" xlink:href="#a"/>
  <use x="71.253906" y="561.003906" xlink:href="#i"/>
  <use x="71.609375" y="561.003906" xlink:href="#h"/>
  <use x="71.847656" y="561.003906" xlink:href="#f"/>
  <use x="72.183594" y="561.003906" xlink:href="#g"/>
  <use x="72.410156" y="561.003906" xlink:href="#f"/>
  <use x="72.628906" y="561.003906" xlink:href="#e"/>
  <use x="70" y="561.339844" xlink:href="#q"/>
  <use x="70.144531" y="561.339844" xlink:href="#c"/>
  <use x="70.3125" y="561.339844" xlink:href="#d"/>
  <use x="70.542969" y="561.339844" xlink:href="#p"/>
  <use x="71.007812" y="561.339844" xlink:href="#b"/>
  <use x="71.167969" y="561.339844" xlink:href="#o"/>
  <use x="71.40625" y="561.339844" xlink:href="#a"/>
  <use x="71.75" y="561.339844" xlink:href="#n"/>
  <use x="72.03125" y="561.339844" xlink:href="#d"/>
  <use x="72.261719" y="561.339844" xlink:href="#e"/>
  <use x="72.5" y="561.339844" xlink:href="#m"/>
  <use x="72.855469" y="561.339844" xlink:href="#l"/>
  <use x="73.101562" y="561.339844" xlink:href="#c"/>
  <use x="73.265625" y="561.339844" xlink:href="#d"/>
  <use x="73.496094" y="561.339844" xlink:href="#k"/>
  <use x="73.609375" y="561.339844" xlink:href="#a"/>
  <use x="73.835938" y="561.339844" xlink:href="#j"/>
  <use x="74.035156" y="561.339844" xlink:href="#b"/>
 </g>
</svg>

